<svg width="26" height="27" viewBox="0 0 26 27" fill="none" xmlns="http://www.w3.org/2000/svg">
<g filter="url(#filter0_d_642_963)">
<path d="M13 1.875C11.393 1.875 9.82214 2.35152 8.486 3.24431C7.14985 4.1371 6.10844 5.40605 5.49348 6.8907C4.87852 8.37535 4.71762 10.009 5.03112 11.5851C5.34463 13.1612 6.11846 14.6089 7.25476 15.7452C8.39106 16.8815 9.8388 17.6554 11.4149 17.9689C12.991 18.2824 14.6247 18.1215 16.1093 17.5065C17.594 16.8916 18.8629 15.8502 19.7557 14.514C20.6485 13.1779 21.125 11.607 21.125 10C21.1227 7.84581 20.266 5.78051 18.7427 4.25727C17.2195 2.73403 15.1542 1.87727 13 1.875ZM13 16.875C11.6403 16.875 10.311 16.4718 9.18046 15.7164C8.04987 14.9609 7.16868 13.8872 6.64833 12.6309C6.12798 11.3747 5.99183 9.99237 6.2571 8.65875C6.52238 7.32513 7.17716 6.10013 8.13864 5.13864C9.10013 4.17716 10.3251 3.52237 11.6588 3.2571C12.9924 2.99183 14.3747 3.12798 15.631 3.64833C16.8872 4.16868 17.9609 5.04987 18.7164 6.18045C19.4718 7.31104 19.875 8.64025 19.875 10C19.8729 11.8227 19.1479 13.5702 17.8591 14.8591C16.5702 16.1479 14.8227 16.8729 13 16.875ZM18 10C18 10.1658 17.9342 10.3247 17.8169 10.4419C17.6997 10.5592 17.5408 10.625 17.375 10.625H13C12.8342 10.625 12.6753 10.5592 12.5581 10.4419C12.4409 10.3247 12.375 10.1658 12.375 10V5.625C12.375 5.45924 12.4409 5.30027 12.5581 5.18306C12.6753 5.06585 12.8342 5 13 5C13.1658 5 13.3247 5.06585 13.4419 5.18306C13.5592 5.30027 13.625 5.45924 13.625 5.625V9.375H17.375C17.5408 9.375 17.6997 9.44085 17.8169 9.55806C17.9342 9.67527 18 9.83424 18 10Z" fill="#8B8D9B"/>
</g>
<defs>
<filter id="filter0_d_642_963" x="-1" y="0" width="28" height="28" filterUnits="userSpaceOnUse" color-interpolation-filters="sRGB">
<feFlood flood-opacity="0" result="BackgroundImageFix"/>
<feColorMatrix in="SourceAlpha" type="matrix" values="0 0 0 0 0 0 0 0 0 0 0 0 0 0 0 0 0 0 127 0" result="hardAlpha"/>
<feOffset dy="4"/>
<feGaussianBlur stdDeviation="2"/>
<feComposite in2="hardAlpha" operator="out"/>
<feColorMatrix type="matrix" values="0 0 0 0 0 0 0 0 0 0 0 0 0 0 0 0 0 0 0.25 0"/>
<feBlend mode="normal" in2="BackgroundImageFix" result="effect1_dropShadow_642_963"/>
<feBlend mode="normal" in="SourceGraphic" in2="effect1_dropShadow_642_963" result="shape"/>
</filter>
</defs>
</svg>
